solid OpenSCAD_Model
  facet normal -1 0 0
    outer loop
      vertex -51 -108.6 -3
      vertex -51 -106.6 3
      vertex -51 -106.6 -3
    endloop
  endfacet
  facet normal -1 -0 0
    outer loop
      vertex -51 -106.6 3
      vertex -51 -108.6 -3
      vertex -51 -108.6 3
    endloop
  endfacet
  facet normal -1 0 0
    outer loop
      vertex -51 -104.1 -3
      vertex -51 -83.99 3
      vertex -51 -83.99 -3
    endloop
  endfacet
  facet normal -1 -0 0
    outer loop
      vertex -51 -83.99 3
      vertex -51 -104.1 -3
      vertex -51 -104.1 3
    endloop
  endfacet
  facet normal -1 0 0
    outer loop
      vertex -51 -116.01 -3
      vertex -51 -111.1 3
      vertex -51 -111.1 -3
    endloop
  endfacet
  facet normal -1 -0 0
    outer loop
      vertex -51 -111.1 3
      vertex -51 -116.01 -3
      vertex -51 -116.01 3
    endloop
  endfacet
  facet normal 0 -1 0
    outer loop
      vertex -51 -116.01 -3
      vertex -50.9 -116.01 3
      vertex -51 -116.01 3
    endloop
  endfacet
  facet normal 0 -1 -0
    outer loop
      vertex -50.9 -116.01 3
      vertex -51 -116.01 -3
      vertex -50.9 -116.01 -3
    endloop
  endfacet
  facet normal 1 -0 0
    outer loop
      vertex -49 -114 3
      vertex -49 -86 -3
      vertex -49 -86 3
    endloop
  endfacet
  facet normal 1 0 0
    outer loop
      vertex -49 -86 -3
      vertex -49 -114 3
      vertex -49 -114 -3
    endloop
  endfacet
  facet normal 0 0 1
    outer loop
      vertex -44.9 -83.92 3
      vertex -49 -86 3
      vertex -44.9 -86 3
    endloop
  endfacet
  facet normal -0 0 1
    outer loop
      vertex -50.9 -83.99 3
      vertex -49 -86 3
      vertex -50.9 -83.92 3
    endloop
  endfacet
  facet normal -0 0 1
    outer loop
      vertex -50.9 -83.92 3
      vertex -49 -86 3
      vertex -44.9 -83.92 3
    endloop
  endfacet
  facet normal -0 0 1
    outer loop
      vertex -49 -114 3
      vertex -44.9 -116.08 3
      vertex -44.9 -114 3
    endloop
  endfacet
  facet normal -0 0 1
    outer loop
      vertex -51 -83.99 3
      vertex -49 -86 3
      vertex -50.9 -83.99 3
    endloop
  endfacet
  facet normal 0 0 1
    outer loop
      vertex -49 -86 3
      vertex -51 -104.1 3
      vertex -49 -114 3
    endloop
  endfacet
  facet normal 0 0 1
    outer loop
      vertex -50.9 -116.08 3
      vertex -49 -114 3
      vertex -50.9 -116.01 3
    endloop
  endfacet
  facet normal 0 0 1
    outer loop
      vertex -49 -114 3
      vertex -50.9 -116.08 3
      vertex -44.9 -116.08 3
    endloop
  endfacet
  facet normal 0 0 1
    outer loop
      vertex -51 -108.6 3
      vertex -52.4 -108.6 3
      vertex -51 -111.1 3
    endloop
  endfacet
  facet normal 0 0 1
    outer loop
      vertex -51 -104.1 3
      vertex -52.4 -106.6 3
      vertex -51 -106.6 3
    endloop
  endfacet
  facet normal 0 0 1
    outer loop
      vertex -49 -86 3
      vertex -51 -83.99 3
      vertex -51 -104.1 3
    endloop
  endfacet
  facet normal -0 0 1
    outer loop
      vertex -51 -106.6 3
      vertex -49 -114 3
      vertex -51 -104.1 3
    endloop
  endfacet
  facet normal -0 0 1
    outer loop
      vertex -51 -108.6 3
      vertex -49 -114 3
      vertex -51 -106.6 3
    endloop
  endfacet
  facet normal -0 0 1
    outer loop
      vertex -51 -111.1 3
      vertex -49 -114 3
      vertex -51 -108.6 3
    endloop
  endfacet
  facet normal 0 0 1
    outer loop
      vertex -51 -116.01 3
      vertex -49 -114 3
      vertex -51 -111.1 3
    endloop
  endfacet
  facet normal 0 0 1
    outer loop
      vertex -49 -114 3
      vertex -51 -116.01 3
      vertex -50.9 -116.01 3
    endloop
  endfacet
  facet normal 0 1 -0
    outer loop
      vertex -50.9 -83.99 -3
      vertex -51 -83.99 3
      vertex -50.9 -83.99 3
    endloop
  endfacet
  facet normal 0 1 0
    outer loop
      vertex -51 -83.99 3
      vertex -50.9 -83.99 -3
      vertex -51 -83.99 -3
    endloop
  endfacet
  facet normal 0 0 -1
    outer loop
      vertex -44.9 -116.08 -3
      vertex -49 -114 -3
      vertex -44.9 -114 -3
    endloop
  endfacet
  facet normal 0 0 -1
    outer loop
      vertex -50.9 -116.01 -3
      vertex -49 -114 -3
      vertex -50.9 -116.08 -3
    endloop
  endfacet
  facet normal 0 0 -1
    outer loop
      vertex -50.9 -116.08 -3
      vertex -49 -114 -3
      vertex -44.9 -116.08 -3
    endloop
  endfacet
  facet normal 0 0 -1
    outer loop
      vertex -49 -86 -3
      vertex -44.9 -83.92 -3
      vertex -44.9 -86 -3
    endloop
  endfacet
  facet normal 0 0 -1
    outer loop
      vertex -51 -116.01 -3
      vertex -49 -114 -3
      vertex -50.9 -116.01 -3
    endloop
  endfacet
  facet normal 0 0 -1
    outer loop
      vertex -51 -106.6 -3
      vertex -49 -114 -3
      vertex -51 -108.6 -3
    endloop
  endfacet
  facet normal 0 0 -1
    outer loop
      vertex -50.9 -83.92 -3
      vertex -49 -86 -3
      vertex -50.9 -83.99 -3
    endloop
  endfacet
  facet normal 0 0 -1
    outer loop
      vertex -49 -86 -3
      vertex -50.9 -83.92 -3
      vertex -44.9 -83.92 -3
    endloop
  endfacet
  facet normal 0 0 -1
    outer loop
      vertex -51 -106.6 -3
      vertex -52.4 -106.6 -3
      vertex -51 -104.1 -3
    endloop
  endfacet
  facet normal -0 0 -1
    outer loop
      vertex -49 -114 -3
      vertex -51 -116.01 -3
      vertex -51 -111.1 -3
    endloop
  endfacet
  facet normal 0 0 -1
    outer loop
      vertex -49 -114 -3
      vertex -51 -111.1 -3
      vertex -51 -108.6 -3
    endloop
  endfacet
  facet normal 0 0 -1
    outer loop
      vertex -51 -104.1 -3
      vertex -49 -114 -3
      vertex -51 -106.6 -3
    endloop
  endfacet
  facet normal 0 0 -1
    outer loop
      vertex -49 -114 -3
      vertex -51 -104.1 -3
      vertex -49 -86 -3
    endloop
  endfacet
  facet normal 0 0 -1
    outer loop
      vertex -51 -83.99 -3
      vertex -49 -86 -3
      vertex -51 -104.1 -3
    endloop
  endfacet
  facet normal 0 0 -1
    outer loop
      vertex -49 -86 -3
      vertex -51 -83.99 -3
      vertex -50.9 -83.99 -3
    endloop
  endfacet
  facet normal -1 0 0
    outer loop
      vertex -50.9 -116.08 -3
      vertex -50.9 -116.01 3
      vertex -50.9 -116.01 -3
    endloop
  endfacet
  facet normal -1 -0 0
    outer loop
      vertex -50.9 -116.01 3
      vertex -50.9 -116.08 -3
      vertex -50.9 -116.08 3
    endloop
  endfacet
  facet normal 0 -1 0
    outer loop
      vertex -50.9 -116.08 -3
      vertex -44.9 -116.08 3
      vertex -50.9 -116.08 3
    endloop
  endfacet
  facet normal 0 -1 -0
    outer loop
      vertex -44.9 -116.08 3
      vertex -50.9 -116.08 -3
      vertex -44.9 -116.08 -3
    endloop
  endfacet
  facet normal 1 -0 0
    outer loop
      vertex -44.9 -116.08 3
      vertex -44.9 -114 -3
      vertex -44.9 -114 3
    endloop
  endfacet
  facet normal 1 0 0
    outer loop
      vertex -44.9 -114 -3
      vertex -44.9 -116.08 3
      vertex -44.9 -116.08 -3
    endloop
  endfacet
  facet normal 0 1 -0
    outer loop
      vertex -44.9 -114 -3
      vertex -49 -114 3
      vertex -44.9 -114 3
    endloop
  endfacet
  facet normal 0 1 0
    outer loop
      vertex -49 -114 3
      vertex -44.9 -114 -3
      vertex -49 -114 -3
    endloop
  endfacet
  facet normal -1 0 0
    outer loop
      vertex -50.9 -83.99 -3
      vertex -50.9 -83.92 3
      vertex -50.9 -83.92 -3
    endloop
  endfacet
  facet normal -1 -0 0
    outer loop
      vertex -50.9 -83.92 3
      vertex -50.9 -83.99 -3
      vertex -50.9 -83.99 3
    endloop
  endfacet
  facet normal 0 -1 0
    outer loop
      vertex -49 -86 -3
      vertex -44.9 -86 3
      vertex -49 -86 3
    endloop
  endfacet
  facet normal 0 -1 -0
    outer loop
      vertex -44.9 -86 3
      vertex -49 -86 -3
      vertex -44.9 -86 -3
    endloop
  endfacet
  facet normal 1 -0 0
    outer loop
      vertex -44.9 -86 3
      vertex -44.9 -83.92 -3
      vertex -44.9 -83.92 3
    endloop
  endfacet
  facet normal 1 0 0
    outer loop
      vertex -44.9 -83.92 -3
      vertex -44.9 -86 3
      vertex -44.9 -86 -3
    endloop
  endfacet
  facet normal 0 1 -0
    outer loop
      vertex -44.9 -83.92 -3
      vertex -50.9 -83.92 3
      vertex -44.9 -83.92 3
    endloop
  endfacet
  facet normal 0 1 0
    outer loop
      vertex -50.9 -83.92 3
      vertex -44.9 -83.92 -3
      vertex -50.9 -83.92 -3
    endloop
  endfacet
  facet normal -0.872506 -0.488604 -0
    outer loop
      vertex -51 -111.1 3
      vertex -52.4 -108.6 3
      vertex -51 -111.1 -3
    endloop
  endfacet
  facet normal -6.81195e-07 0 -1
    outer loop
      vertex -51 -111.1 -3
      vertex -52.4 -108.6 -3
      vertex -51 -108.6 -3
    endloop
  endfacet
  facet normal -0.872506 -0.488604 -0
    outer loop
      vertex -52.4 -108.6 3
      vertex -52.4 -108.6 -3
      vertex -51 -111.1 -3
    endloop
  endfacet
  facet normal 0 1 0
    outer loop
      vertex -51 -108.6 3
      vertex -52.4 -108.6 -3
      vertex -52.4 -108.6 3
    endloop
  endfacet
  facet normal -0 1 0
    outer loop
      vertex -52.4 -108.6 -3
      vertex -51 -108.6 3
      vertex -51 -108.6 -3
    endloop
  endfacet
  facet normal 0 -1 0
    outer loop
      vertex -52.4 -106.6 -3
      vertex -51 -106.6 3
      vertex -52.4 -106.6 3
    endloop
  endfacet
  facet normal 0 -1 -0
    outer loop
      vertex -51 -106.6 3
      vertex -52.4 -106.6 -3
      vertex -51 -106.6 -3
    endloop
  endfacet
  facet normal -0.872506 0.488604 0
    outer loop
      vertex -52.4 -106.6 -3
      vertex -51 -104.1 3
      vertex -51 -104.1 -3
    endloop
  endfacet
  facet normal -0.872506 0.488604 0
    outer loop
      vertex -51 -104.1 3
      vertex -52.4 -106.6 -3
      vertex -52.4 -106.6 3
    endloop
  endfacet
endsolid OpenSCAD_Model
